<svg version="1.1" id="Layer_1" xmlns="http://www.w3.org/2000/svg" xmlns:xlink="http://www.w3.org/1999/xlink" x="0px" y="0px"
	 width="3%" viewBox="0 0 192 192" enable-background="new 0 0 192 192" xml:space="preserve">
<path fill="#000000" opacity="1.000000" stroke="none" 
	d="
M106.000000,193.000000 
	C70.689354,193.000000 35.878712,193.000000 1.034034,193.000000 
	C1.034034,129.064392 1.034034,65.128761 1.034034,1.096564 
	C64.893806,1.096564 128.787811,1.096564 192.840912,1.096564 
	C192.840912,64.999687 192.840912,128.999802 192.840912,193.000000 
	C164.129044,193.000000 135.314529,193.000000 106.000000,193.000000 
M145.801666,61.625393 
	C145.863892,51.439045 145.945236,41.252697 145.945282,31.066347 
	C145.945282,30.387350 145.328247,29.708349 144.622650,28.360113 
	C140.604538,28.360113 136.586411,28.360113 131.997803,28.360113 
	C131.997803,30.514845 132.027649,32.644016 131.992188,34.772102 
	C131.887497,41.057457 130.757751,41.893173 123.983170,40.254730 
	C123.983170,37.422367 124.187592,34.439926 123.883553,31.510248 
	C123.760223,30.321884 122.646866,28.396374 121.781158,28.276970 
	C118.766472,27.861168 115.619476,27.793787 112.617577,28.236607 
	C111.604492,28.386049 110.295120,30.375135 110.131172,31.653048 
	C109.759033,34.553665 110.013947,37.534725 110.013947,40.657425 
	C107.372627,40.657425 105.367622,40.657425 103.247192,40.657425 
	C103.146683,39.068367 103.046600,37.922169 103.009262,36.773930 
	C102.971443,35.610703 103.035500,34.443752 102.985664,33.281399 
	C102.783058,28.555506 101.282715,27.385805 96.821716,28.151691 
	C94.361618,28.574053 91.850937,28.701815 88.967094,29.003859 
	C88.967094,31.180470 88.994728,33.492867 88.961525,35.804390 
	C88.884804,41.146023 88.348907,41.538967 82.363266,40.516243 
	C82.259056,39.632259 82.075363,38.674835 82.043648,37.712402 
	C81.719826,27.884678 81.723534,28.076832 72.206551,27.918335 
	C67.896866,27.846560 66.572472,29.551697 66.921501,33.531433 
	C67.131424,35.925056 66.960098,38.352116 66.960098,40.517467 
	C61.489620,42.057751 59.516598,40.284737 59.972126,35.528458 
	C60.114117,34.045883 60.252914,32.464188 59.881935,31.063248 
	C59.596497,29.985344 58.522778,28.308712 57.777752,28.297079 
	C54.186241,28.240999 50.587330,28.658985 46.557766,29.112442 
	C46.246075,29.296995 46.112164,29.569044 46.016754,30.634872 
	C46.051723,31.111738 46.086693,31.588602 46.030266,32.989567 
	C46.018307,40.771904 45.941593,48.555073 46.041882,56.335964 
	C46.065678,58.181973 46.682819,60.020340 47.604473,62.433594 
	C49.863411,62.748215 52.122345,63.062836 53.939346,63.315903 
	C53.939346,74.084366 54.303093,84.647682 53.851456,95.176033 
	C53.222687,109.833466 52.097523,124.473579 50.959572,139.103592 
	C50.349567,146.946045 49.268066,154.751816 48.480328,161.844849 
	C45.395084,163.103790 41.764057,163.526215 40.359310,165.518417 
	C39.366867,166.925903 38.054577,171.296967 42.593475,173.637924 
	C49.054428,173.398087 55.515377,173.158264 62.560020,172.945175 
	C62.753250,172.969589 62.946480,172.994003 63.392879,173.854050 
	C91.594749,173.901978 119.796616,173.956177 147.998489,173.956833 
	C148.620041,173.956848 149.241592,173.345657 150.490601,172.486359 
	C151.764740,164.768814 151.764740,164.768814 142.533401,162.314484 
	C142.024231,154.732162 141.472900,147.172272 141.017380,139.606613 
	C139.994492,122.617592 139.039673,105.624458 138.007278,88.636024 
	C137.798737,85.204666 137.311356,81.791039 137.056320,78.361519 
	C136.684097,73.356262 136.405853,68.344025 136.109146,63.674747 
	C139.589493,63.009262 142.293747,62.492180 145.801666,61.625393 
z"/>
<path fill="#57585D" opacity="1.000000" stroke="none" 
	d="
M41.985092,173.066742 
	C38.054577,171.296967 39.366867,166.925903 40.359310,165.518417 
	C41.764057,163.526215 45.395084,163.103790 48.480328,161.844849 
	C49.268066,154.751816 50.349567,146.946045 50.959572,139.103592 
	C52.097523,124.473579 53.222687,109.833466 53.851456,95.176033 
	C54.303093,84.647682 53.939346,74.084366 53.939346,63.315903 
	C52.122345,63.062836 49.863411,62.748215 47.303947,61.689125 
	C47.003662,56.838818 47.114429,52.729271 46.977066,48.628036 
	C46.792042,43.103828 46.415821,37.586021 46.121662,32.065468 
	C46.086693,31.588602 46.051723,31.111738 46.252869,30.136284 
	C46.673084,29.406258 46.840439,29.163284 46.991043,28.908775 
	C50.587330,28.658985 54.186241,28.240999 57.777752,28.297079 
	C58.522778,28.308712 59.596497,29.985344 59.881935,31.063248 
	C60.252914,32.464188 60.114117,34.045883 59.972126,35.528458 
	C59.516598,40.284737 61.489620,42.057751 66.960098,40.517467 
	C66.960098,38.352116 67.131424,35.925056 66.921501,33.531433 
	C66.572472,29.551697 67.896866,27.846560 72.206551,27.918335 
	C81.723534,28.076832 81.719826,27.884678 82.043648,37.712402 
	C82.075363,38.674835 82.259056,39.632259 82.363266,40.516243 
	C88.348907,41.538967 88.884804,41.146023 88.961525,35.804390 
	C88.994728,33.492867 88.967094,31.180470 88.967094,29.003859 
	C91.850937,28.701815 94.361618,28.574053 96.821716,28.151691 
	C101.282715,27.385805 102.783058,28.555506 102.985664,33.281399 
	C103.035500,34.443752 102.971443,35.610703 103.009262,36.773930 
	C103.046600,37.922169 103.146683,39.068367 103.247192,40.657425 
	C105.367622,40.657425 107.372627,40.657425 110.013947,40.657425 
	C110.013947,37.534725 109.759033,34.553665 110.131172,31.653048 
	C110.295120,30.375135 111.604492,28.386049 112.617577,28.236607 
	C115.619476,27.793787 118.766472,27.861168 121.781158,28.276970 
	C122.646866,28.396374 123.760223,30.321884 123.883553,31.510248 
	C124.187592,34.439926 123.983170,37.422367 123.983170,40.254730 
	C130.757751,41.893173 131.887497,41.057457 131.992188,34.772102 
	C132.027649,32.644016 131.997803,30.514845 131.997803,28.360113 
	C136.586411,28.360113 140.604538,28.360113 144.834381,29.160919 
	C145.030075,40.632847 145.014038,51.303970 144.997986,61.975090 
	C142.293747,62.492180 139.589493,63.009262 136.109146,63.674747 
	C136.405853,68.344025 136.684097,73.356262 137.056320,78.361519 
	C137.311356,81.791039 137.798737,85.204666 138.007278,88.636024 
	C139.039673,105.624458 139.994492,122.617592 141.017380,139.606613 
	C141.472900,147.172272 142.024231,154.732162 142.533401,162.314484 
	C151.764740,164.768814 151.764740,164.768814 149.717285,172.774094 
	C129.286514,173.004898 109.629074,172.947983 89.769958,172.689636 
	C88.721725,172.621826 87.875175,172.755402 86.564301,172.969788 
	C78.446564,173.039856 70.793137,173.029144 63.139713,173.018433 
	C62.946480,172.994003 62.753250,172.969589 61.931381,172.698120 
	C54.863529,172.656296 48.424309,172.861526 41.985092,173.066742 
M98.230331,125.961151 
	C96.231071,125.960602 94.225182,126.064827 92.233841,125.938950 
	C87.177284,125.619362 83.724007,128.741028 83.423271,132.862793 
	C82.703072,142.733612 83.190559,152.692551 83.190559,162.709778 
	C92.019196,162.709778 100.246178,162.709778 108.987709,162.709778 
	C108.987709,153.716049 109.007935,145.089020 108.981224,136.462112 
	C108.960358,129.723251 105.926033,126.519241 98.230331,125.961151 
M100.970070,80.076294 
	C100.522835,76.669716 98.195694,75.574394 95.275368,76.130424 
	C93.777122,76.415695 91.394653,77.754875 91.306755,78.780205 
	C90.887764,83.667877 91.119125,88.611298 91.119125,93.649582 
	C94.651451,93.649582 97.551956,93.649582 100.992714,93.649582 
	C100.992714,89.210297 100.992714,85.090012 100.970070,80.076294 
z"/>
<path fill="#FFFFFF" opacity="1.000000" stroke="none" 
	d="
M63.266296,173.436249 
	C70.793137,173.029144 78.446564,173.039856 86.930267,173.022949 
	C88.497574,172.960571 89.234604,172.925812 89.971634,172.891052 
	C109.629074,172.947983 129.286514,173.004898 149.403549,173.040710 
	C149.241592,173.345657 148.620041,173.956848 147.998489,173.956833 
	C119.796616,173.956177 91.594749,173.901978 63.266296,173.436249 
z"/>
<path fill="#3F3F42" opacity="1.000000" stroke="none" 
	d="
M42.289284,173.352325 
	C48.424309,172.861526 54.863529,172.656296 61.639538,172.684753 
	C55.515377,173.158264 49.054428,173.398087 42.289284,173.352325 
z"/>
<path fill="#979798" opacity="1.000000" stroke="none" 
	d="
M145.399826,61.800240 
	C145.014038,51.303970 145.030075,40.632847 145.022156,29.495539 
	C145.328247,29.708349 145.945282,30.387350 145.945282,31.066347 
	C145.945236,41.252697 145.863892,51.439045 145.399826,61.800240 
z"/>
<path fill="#6C6C6E" opacity="1.000000" stroke="none" 
	d="
M46.075966,32.527519 
	C46.415821,37.586021 46.792042,43.103828 46.977066,48.628036 
	C47.114429,52.729271 47.003662,56.838818 47.015228,61.403442 
	C46.682819,60.020340 46.065678,58.181973 46.041882,56.335964 
	C45.941593,48.555073 46.018307,40.771904 46.075966,32.527519 
z"/>
<path fill="#6C6C6E" opacity="1.000000" stroke="none" 
	d="
M46.774406,29.010609 
	C46.840439,29.163284 46.673084,29.406258 46.322510,29.783142 
	C46.112164,29.569044 46.246075,29.296995 46.774406,29.010609 
z"/>
<path fill="#000000" opacity="1.000000" stroke="none" 
	d="
M98.679520,125.961517 
	C105.926033,126.519241 108.960358,129.723251 108.981224,136.462112 
	C109.007935,145.089020 108.987709,153.716049 108.987709,162.709778 
	C100.246178,162.709778 92.019196,162.709778 83.190559,162.709778 
	C83.190559,152.692551 82.703072,142.733612 83.423271,132.862793 
	C83.724007,128.741028 87.177284,125.619362 92.233841,125.938950 
	C94.225182,126.064827 96.231071,125.960602 98.679520,125.961517 
z"/>
<path fill="#000000" opacity="1.000000" stroke="none" 
	d="
M100.981392,80.523010 
	C100.992714,85.090012 100.992714,89.210297 100.992714,93.649582 
	C97.551956,93.649582 94.651451,93.649582 91.119125,93.649582 
	C91.119125,88.611298 90.887764,83.667877 91.306755,78.780205 
	C91.394653,77.754875 93.777122,76.415695 95.275368,76.130424 
	C98.195694,75.574394 100.522835,76.669716 100.981392,80.523010 
z"/>
<path fill="#3F3F42" opacity="1.000000" stroke="none" 
	d="
M89.769958,172.689636 
	C89.234604,172.925812 88.497574,172.960571 87.394577,172.942169 
	C87.875175,172.755402 88.721725,172.621826 89.769958,172.689636 
z"/>
</svg>